<svg width="24" height="24" xmlns="http://www.w3.org/2000/svg" xmlns:xlink="http://www.w3.org/1999/xlink">
 <defs>
  <path id="a" d="m0,0l24,0l0,24l-24,0l0,-24z"/>
 </defs>
 <clipPath id="b">
  <use id="svg_1" xlink:href="#a"/>
 </clipPath>
 <g>
  <title>background</title>
  <rect fill="none" id="canvas_background" height="402" width="582" y="-1" x="-1"/>
 </g>
 <g>
  <title>Layer 1</title>
  <path fill="#3f51b5" id="svg_2" d="m12,2c-3.86,0 -7,3.14 -7,7c0,5.25 7,13 7,13s7,-7.75 7,-13c0,-3.86 -3.14,-7 -7,-7zm0,2c1.1,0 2,0.9 2,2c0,1.11 -0.9,2 -2,2s-2,-0.89 -2,-2c0,-1.1 0.9,-2 2,-2zm0,10c-1.67,0 -3.14,-0.85 -4,-2.15c0.02,-1.32 2.67,-2.05 4,-2.05s3.98,0.73 4,2.05c-0.86,1.3 -2.33,2.15 -4,2.15z" clip-path="url(#b)"/>
 </g>
</svg>